<?xml version="1.0" standalone="no"?>
<!DOCTYPE svg PUBLIC "-//W3C//DTD SVG 20010904//EN"
 "http://www.w3.org/TR/2001/REC-SVG-20010904/DTD/svg10.dtd">
<svg version="1.0" xmlns="http://www.w3.org/2000/svg"
 width="94.000000pt" height="49.000000pt" viewBox="0 0 94.000000 49.000000"
 preserveAspectRatio="xMidYMid meet">

<g transform="translate(0.000000,49.000000) scale(0.100000,-0.100000)"
fill="#000000" stroke="none">
<path d="M30 400 l0 -50 122 0 123 0 95 -95 96 -95 34 35 34 35 -109 110 -110
110 -142 0 -143 0 0 -50z"/>
<path d="M542 387 l-62 -63 38 -37 38 -37 49 50 49 50 133 0 133 0 0 50 0 50
-158 0 -158 0 -62 -63z"/>
<path d="M30 240 l0 -50 120 0 120 0 0 50 0 50 -120 0 -120 0 0 -50z"/>
<path d="M750 160 l0 -130 50 0 50 0 0 130 0 130 -50 0 -50 0 0 -130z"/>
<path d="M30 85 l0 -55 120 0 120 0 0 55 0 55 -120 0 -120 0 0 -55z"/>
</g>
</svg>
